<svg xmlns="http://www.w3.org/2000/svg" xmlns:xlink="http://www.w3.org/1999/xlink" width="500" zoomAndPan="magnify" viewBox="0 0 375 374.999991" height="500" preserveAspectRatio="xMidYMid meet" version="1.0"><defs><g/></defs><g fill="#0292b7" fill-opacity="1"><g transform="translate(116.951782, 204.080086)"><g><path d="M 51.71875 -116.25 C 71.09375 -116.25 85.597656 -111.40625 95.234375 -101.71875 C 104.867188 -92.03125 109.6875 -77.9375 109.6875 -59.4375 C 109.6875 -47.507812 107.332031 -37.054688 102.625 -28.078125 C 97.914062 -19.097656 91.097656 -12.171875 82.171875 -7.296875 C 73.253906 -2.429688 62.613281 0 50.25 0 L 40.71875 -0.171875 C 34.59375 -0.390625 30.101562 -0.5 27.25 -0.5 C 18.28125 -0.5 11.492188 -0.332031 6.890625 0 L 6.890625 -3.28125 C 10.835938 -3.5 13.710938 -3.9375 15.515625 -4.59375 C 17.316406 -5.25 18.546875 -6.507812 19.203125 -8.375 C 19.867188 -10.238281 20.203125 -13.25 20.203125 -17.40625 L 20.203125 -98.84375 C 20.203125 -103.007812 19.867188 -106.019531 19.203125 -107.875 C 18.546875 -109.738281 17.316406 -111 15.515625 -111.65625 C 13.710938 -112.3125 10.835938 -112.75 6.890625 -112.96875 L 6.890625 -116.25 C 10.722656 -115.925781 16.035156 -115.765625 22.828125 -115.765625 L 36.78125 -115.921875 C 44.226562 -116.140625 49.207031 -116.25 51.71875 -116.25 Z M 47.625 -113.296875 C 44.226562 -113.296875 41.679688 -112.910156 39.984375 -112.140625 C 38.285156 -111.378906 37.109375 -110.015625 36.453125 -108.046875 C 35.796875 -106.078125 35.46875 -103.117188 35.46875 -99.171875 L 35.46875 -17.078125 C 35.46875 -13.140625 35.796875 -10.179688 36.453125 -8.203125 C 37.109375 -6.234375 38.285156 -4.863281 39.984375 -4.09375 C 41.679688 -3.332031 44.28125 -2.953125 47.78125 -2.953125 C 59.382812 -2.953125 68.523438 -5.054688 75.203125 -9.265625 C 81.878906 -13.484375 86.554688 -19.644531 89.234375 -27.75 C 91.921875 -35.851562 93.265625 -46.195312 93.265625 -58.78125 C 93.265625 -71.375 91.785156 -81.640625 88.828125 -89.578125 C 85.878906 -97.515625 81.09375 -103.453125 74.46875 -107.390625 C 67.84375 -111.328125 58.894531 -113.296875 47.625 -113.296875 Z M 47.625 -113.296875 "/></g></g></g><g fill="#99dfec" fill-opacity="1"><g transform="translate(152.124268, 254.249983)"><g><path d="M 47.875 -110.90625 C 44.007812 -110.6875 41.1875 -110.253906 39.40625 -109.609375 C 37.632812 -108.972656 36.425781 -107.738281 35.78125 -105.90625 C 35.132812 -104.082031 34.8125 -101.128906 34.8125 -97.046875 L 34.8125 -17.09375 C 34.8125 -13.007812 35.132812 -10.050781 35.78125 -8.21875 C 36.425781 -6.394531 37.632812 -5.1875 39.40625 -4.59375 C 41.1875 -4 44.007812 -3.703125 47.875 -3.703125 L 59.640625 -3.703125 C 66.304688 -3.703125 71.382812 -4.640625 74.875 -6.515625 C 78.375 -8.398438 80.925781 -11.4375 82.53125 -15.625 C 84.144531 -19.820312 85.328125 -25.898438 86.078125 -33.859375 L 89.796875 -33.859375 C 89.472656 -30.523438 89.3125 -26.117188 89.3125 -20.640625 C 89.3125 -14.515625 89.6875 -7.632812 90.4375 0 C 83.125 -0.320312 70.816406 -0.484375 53.515625 -0.484375 C 32.878906 -0.484375 17.296875 -0.320312 6.765625 0 L 6.765625 -3.21875 C 10.640625 -3.4375 13.460938 -3.867188 15.234375 -4.515625 C 17.003906 -5.160156 18.210938 -6.394531 18.859375 -8.21875 C 19.503906 -10.050781 19.828125 -13.007812 19.828125 -17.09375 L 19.828125 -97.046875 C 19.828125 -101.128906 19.503906 -104.082031 18.859375 -105.90625 C 18.210938 -107.738281 17.003906 -108.972656 15.234375 -109.609375 C 13.460938 -110.253906 10.640625 -110.6875 6.765625 -110.90625 L 6.765625 -114.125 C 11.285156 -113.800781 18.164062 -113.640625 27.40625 -113.640625 C 36 -113.640625 42.820312 -113.800781 47.875 -114.125 Z M 47.875 -110.90625 "/></g></g></g><g fill="#1ac8db" fill-opacity="1"><g transform="translate(191.682253, 211.715729)"><g><path d="M 3.710938 -9.058594 L 1.011719 -9.058594 L 1.011719 0 L 3.710938 0 C 9.742188 0 9.742188 -9.058594 3.710938 -9.058594 Z M 3.710938 -7.246094 C 7.234375 -7.246094 7.234375 -1.8125 3.710938 -1.8125 L 2.824219 -1.8125 L 2.824219 -7.246094 Z M 3.710938 -7.246094 "/></g></g></g><g fill="#1ac8db" fill-opacity="1"><g transform="translate(204.445013, 211.715729)"><g><path d="M 7.511719 -3.152344 L 7.511719 -9.058594 L 5.714844 -9.058594 L 5.714844 -3.167969 C 5.714844 -1.265625 2.773438 -1.265625 2.773438 -3.167969 L 2.773438 -9.058594 L 0.960938 -9.058594 L 0.960938 -3.152344 C 0.960938 1.152344 7.511719 1.152344 7.511719 -3.152344 Z M 7.511719 -3.152344 "/></g></g></g><g fill="#1ac8db" fill-opacity="1"><g transform="translate(216.79012, 211.715729)"><g><path d="M 3.230469 0 L 5.027344 0 L 5.027344 -4.078125 L 8.195312 -9.058594 L 5.980469 -9.058594 L 4.128906 -5.941406 L 2.28125 -9.058594 L 0.0742188 -9.058594 L 3.230469 -4.078125 Z M 3.230469 0 "/></g></g></g><g fill="#1ac8db" fill-opacity="1"><g transform="translate(228.856781, 211.715729)"><g><path d="M 5.699219 0 L 5.699219 -1.8125 L 2.824219 -1.8125 L 2.824219 -3.621094 L 5.207031 -3.621094 L 5.207031 -5.433594 L 2.824219 -5.433594 L 2.824219 -7.246094 L 5.546875 -7.246094 L 5.546875 -9.058594 L 1.011719 -9.058594 L 1.011719 0 Z M 5.699219 0 "/></g></g></g><g fill="#1ac8db" fill-opacity="1"><g transform="translate(239.088291, 211.715729)"><g><path d="M 2.824219 -4.925781 L 7.410156 0.191406 L 7.890625 0.191406 L 7.890625 -9.042969 L 6.066406 -9.042969 L 6.066406 -3.925781 L 1.496094 -9.246094 L 1.011719 -9.246094 L 1.011719 0 L 2.824219 0 Z M 2.824219 -4.925781 "/></g></g></g><g fill="#1ac8db" fill-opacity="1"><g transform="translate(121.118508, 243.489726)"><g><path d="M 1.011719 -9.058594 L 1.011719 0 L 5.699219 0 L 5.699219 -1.8125 L 2.824219 -1.8125 L 2.824219 -9.058594 Z M 1.011719 -9.058594 "/></g></g></g><g fill="#1ac8db" fill-opacity="1"><g transform="translate(131.210788, 243.489726)"><g><path d="M 0.203125 0 L 2.253906 0 L 2.609375 -0.976562 L 5.613281 -0.976562 L 5.980469 0 L 8.019531 0 L 4.207031 -9.386719 L 4.015625 -9.386719 Z M 3.269531 -2.671875 L 4.117188 -5.027344 L 4.941406 -2.671875 Z M 3.269531 -2.671875 "/></g></g></g><g fill="#1ac8db" fill-opacity="1"><g transform="translate(143.328078, 243.489726)"><g><path d="M 2.824219 -4.925781 L 7.410156 0.191406 L 7.890625 0.191406 L 7.890625 -9.042969 L 6.066406 -9.042969 L 6.066406 -3.925781 L 1.496094 -9.246094 L 1.011719 -9.246094 L 1.011719 0 L 2.824219 0 Z M 2.824219 -4.925781 "/></g></g></g><g fill="#1ac8db" fill-opacity="1"><g transform="translate(156.090837, 243.489726)"><g><path d="M 3.710938 -9.058594 L 1.011719 -9.058594 L 1.011719 0 L 3.710938 0 C 9.742188 0 9.742188 -9.058594 3.710938 -9.058594 Z M 3.710938 -7.246094 C 7.234375 -7.246094 7.234375 -1.8125 3.710938 -1.8125 L 2.824219 -1.8125 L 2.824219 -7.246094 Z M 3.710938 -7.246094 "/></g></g></g></svg>